<svg id="wave" style="transform:rotate(180deg); transition: 0.3s" viewBox="0 0 1440 270" version="1.1" xmlns="http://www.w3.org/2000/svg"><defs><linearGradient id="sw-gradient-0" x1="0" x2="0" y1="1" y2="0"><stop stop-color="rgba(243, 145.155, 62, 1)" offset="0%"></stop><stop stop-color="rgba(255, 222.283, 11, 1)" offset="100%"></stop></linearGradient></defs><path style="transform:translate(0, 0px); opacity:1" fill="url(#sw-gradient-0)" d="M0,0L26.7,40.5C53.3,81,107,162,160,180C213.3,198,267,153,320,153C373.3,153,427,198,480,202.5C533.3,207,587,171,640,162C693.3,153,747,171,800,157.5C853.3,144,907,99,960,90C1013.3,81,1067,108,1120,103.5C1173.3,99,1227,63,1280,76.5C1333.3,90,1387,153,1440,175.5C1493.3,198,1547,180,1600,153C1653.3,126,1707,90,1760,81C1813.3,72,1867,90,1920,90C1973.3,90,2027,72,2080,72C2133.3,72,2187,90,2240,94.5C2293.3,99,2347,90,2400,76.5C2453.3,63,2507,45,2560,67.5C2613.3,90,2667,153,2720,153C2773.3,153,2827,90,2880,81C2933.3,72,2987,117,3040,148.5C3093.3,180,3147,198,3200,180C3253.3,162,3307,108,3360,81C3413.3,54,3467,54,3520,54C3573.3,54,3627,54,3680,85.5C3733.3,117,3787,180,3813,211.5L3840,243L3840,270L3813.3,270C3786.7,270,3733,270,3680,270C3626.7,270,3573,270,3520,270C3466.7,270,3413,270,3360,270C3306.7,270,3253,270,3200,270C3146.7,270,3093,270,3040,270C2986.7,270,2933,270,2880,270C2826.7,270,2773,270,2720,270C2666.7,270,2613,270,2560,270C2506.7,270,2453,270,2400,270C2346.7,270,2293,270,2240,270C2186.7,270,2133,270,2080,270C2026.7,270,1973,270,1920,270C1866.7,270,1813,270,1760,270C1706.7,270,1653,270,1600,270C1546.7,270,1493,270,1440,270C1386.7,270,1333,270,1280,270C1226.7,270,1173,270,1120,270C1066.7,270,1013,270,960,270C906.7,270,853,270,800,270C746.7,270,693,270,640,270C586.7,270,533,270,480,270C426.7,270,373,270,320,270C266.7,270,213,270,160,270C106.7,270,53,270,27,270L0,270Z"></path><defs><linearGradient id="sw-gradient-1" x1="0" x2="0" y1="1" y2="0"><stop stop-color="rgba(255, 0, 0, 1)" offset="0%"></stop><stop stop-color="rgba(254.656, 255, 11, 1)" offset="100%"></stop></linearGradient></defs><path style="transform:translate(0, 50px); opacity:0.9" fill="url(#sw-gradient-1)" d="M0,135L26.7,144C53.3,153,107,171,160,184.5C213.3,198,267,207,320,198C373.3,189,427,162,480,135C533.3,108,587,81,640,72C693.3,63,747,72,800,103.5C853.3,135,907,189,960,193.5C1013.3,198,1067,153,1120,130.5C1173.3,108,1227,108,1280,126C1333.3,144,1387,180,1440,184.5C1493.3,189,1547,162,1600,162C1653.3,162,1707,189,1760,198C1813.3,207,1867,198,1920,175.5C1973.3,153,2027,117,2080,112.5C2133.3,108,2187,135,2240,153C2293.3,171,2347,180,2400,153C2453.3,126,2507,63,2560,31.5C2613.3,0,2667,0,2720,0C2773.3,0,2827,0,2880,40.5C2933.3,81,2987,162,3040,175.5C3093.3,189,3147,135,3200,117C3253.3,99,3307,117,3360,126C3413.3,135,3467,135,3520,144C3573.3,153,3627,171,3680,153C3733.3,135,3787,81,3813,54L3840,27L3840,270L3813.3,270C3786.7,270,3733,270,3680,270C3626.7,270,3573,270,3520,270C3466.7,270,3413,270,3360,270C3306.7,270,3253,270,3200,270C3146.7,270,3093,270,3040,270C2986.7,270,2933,270,2880,270C2826.7,270,2773,270,2720,270C2666.7,270,2613,270,2560,270C2506.7,270,2453,270,2400,270C2346.7,270,2293,270,2240,270C2186.7,270,2133,270,2080,270C2026.7,270,1973,270,1920,270C1866.7,270,1813,270,1760,270C1706.7,270,1653,270,1600,270C1546.7,270,1493,270,1440,270C1386.7,270,1333,270,1280,270C1226.7,270,1173,270,1120,270C1066.7,270,1013,270,960,270C906.7,270,853,270,800,270C746.7,270,693,270,640,270C586.7,270,533,270,480,270C426.7,270,373,270,320,270C266.7,270,213,270,160,270C106.7,270,53,270,27,270L0,270Z"></path></svg>