<svg id="wave" style="transform:rotate(180deg); transition: 0.3s" viewBox="0 0 1440 220" version="1.1" xmlns="http://www.w3.org/2000/svg"><defs><linearGradient id="sw-gradient-0" x1="0" x2="0" y1="1" y2="0"><stop stop-color="rgba(148, 75, 190, 1)" offset="0%"></stop><stop stop-color="rgba(148, 75, 190, 1)" offset="100%"></stop></linearGradient></defs><path style="transform:translate(0, 0px); opacity:1" fill="url(#sw-gradient-0)" d="M0,88L30,99C60,110,120,132,180,150.3C240,169,300,183,360,168.7C420,154,480,110,540,106.3C600,103,660,139,720,139.3C780,139,840,103,900,77C960,51,1020,37,1080,47.7C1140,59,1200,95,1260,113.7C1320,132,1380,132,1440,135.7C1500,139,1560,147,1620,128.3C1680,110,1740,66,1800,69.7C1860,73,1920,125,1980,135.7C2040,147,2100,117,2160,106.3C2220,95,2280,103,2340,121C2400,139,2460,169,2520,161.3C2580,154,2640,110,2700,88C2760,66,2820,66,2880,84.3C2940,103,3000,139,3060,161.3C3120,183,3180,191,3240,161.3C3300,132,3360,66,3420,36.7C3480,7,3540,15,3600,40.3C3660,66,3720,110,3780,139.3C3840,169,3900,183,3960,176C4020,169,4080,139,4140,128.3C4200,117,4260,125,4290,128.3L4320,132L4320,220L4290,220C4260,220,4200,220,4140,220C4080,220,4020,220,3960,220C3900,220,3840,220,3780,220C3720,220,3660,220,3600,220C3540,220,3480,220,3420,220C3360,220,3300,220,3240,220C3180,220,3120,220,3060,220C3000,220,2940,220,2880,220C2820,220,2760,220,2700,220C2640,220,2580,220,2520,220C2460,220,2400,220,2340,220C2280,220,2220,220,2160,220C2100,220,2040,220,1980,220C1920,220,1860,220,1800,220C1740,220,1680,220,1620,220C1560,220,1500,220,1440,220C1380,220,1320,220,1260,220C1200,220,1140,220,1080,220C1020,220,960,220,900,220C840,220,780,220,720,220C660,220,600,220,540,220C480,220,420,220,360,220C300,220,240,220,180,220C120,220,60,220,30,220L0,220Z"></path><defs><linearGradient id="sw-gradient-1" x1="0" x2="0" y1="1" y2="0"><stop stop-color="rgba(243, 106, 62, 1)" offset="0%"></stop><stop stop-color="rgba(255, 179, 11, 1)" offset="100%"></stop></linearGradient></defs><path style="transform:translate(0, 50px); opacity:0.9" fill="url(#sw-gradient-1)" d="M0,176L30,154C60,132,120,88,180,77C240,66,300,88,360,99C420,110,480,110,540,124.7C600,139,660,169,720,176C780,183,840,169,900,143C960,117,1020,81,1080,55C1140,29,1200,15,1260,11C1320,7,1380,15,1440,47.7C1500,81,1560,139,1620,161.3C1680,183,1740,169,1800,150.3C1860,132,1920,110,1980,88C2040,66,2100,44,2160,51.3C2220,59,2280,95,2340,106.3C2400,117,2460,103,2520,95.3C2580,88,2640,88,2700,102.7C2760,117,2820,147,2880,161.3C2940,176,3000,176,3060,172.3C3120,169,3180,161,3240,135.7C3300,110,3360,66,3420,66C3480,66,3540,110,3600,135.7C3660,161,3720,169,3780,165C3840,161,3900,147,3960,139.3C4020,132,4080,132,4140,110C4200,88,4260,44,4290,22L4320,0L4320,220L4290,220C4260,220,4200,220,4140,220C4080,220,4020,220,3960,220C3900,220,3840,220,3780,220C3720,220,3660,220,3600,220C3540,220,3480,220,3420,220C3360,220,3300,220,3240,220C3180,220,3120,220,3060,220C3000,220,2940,220,2880,220C2820,220,2760,220,2700,220C2640,220,2580,220,2520,220C2460,220,2400,220,2340,220C2280,220,2220,220,2160,220C2100,220,2040,220,1980,220C1920,220,1860,220,1800,220C1740,220,1680,220,1620,220C1560,220,1500,220,1440,220C1380,220,1320,220,1260,220C1200,220,1140,220,1080,220C1020,220,960,220,900,220C840,220,780,220,720,220C660,220,600,220,540,220C480,220,420,220,360,220C300,220,240,220,180,220C120,220,60,220,30,220L0,220Z"></path></svg>