<svg id="wave" style="transform:rotate(180deg); transition: 0.3s" viewBox="0 0 1440 210" version="1.1" xmlns="http://www.w3.org/2000/svg"><defs><linearGradient id="sw-gradient-0" x1="0" x2="0" y1="1" y2="0"><stop stop-color="rgba(243, 145.155, 62, 1)" offset="0%"></stop><stop stop-color="rgba(255, 222, 11, 1)" offset="100%"></stop></linearGradient></defs><path style="transform:translate(0, 0px); opacity:1" fill="url(#sw-gradient-0)" d="M0,21L26.7,17.5C53.3,14,107,7,160,35C213.3,63,267,126,320,140C373.3,154,427,119,480,101.5C533.3,84,587,84,640,94.5C693.3,105,747,126,800,112C853.3,98,907,49,960,24.5C1013.3,0,1067,0,1120,21C1173.3,42,1227,84,1280,87.5C1333.3,91,1387,56,1440,38.5C1493.3,21,1547,21,1600,49C1653.3,77,1707,133,1760,129.5C1813.3,126,1867,63,1920,56C1973.3,49,2027,98,2080,126C2133.3,154,2187,161,2240,168C2293.3,175,2347,182,2400,157.5C2453.3,133,2507,77,2560,66.5C2613.3,56,2667,91,2720,115.5C2773.3,140,2827,154,2880,161C2933.3,168,2987,168,3040,140C3093.3,112,3147,56,3200,28C3253.3,0,3307,0,3360,31.5C3413.3,63,3467,126,3520,140C3573.3,154,3627,119,3680,108.5C3733.3,98,3787,112,3813,119L3840,126L3840,210L3813.3,210C3786.7,210,3733,210,3680,210C3626.7,210,3573,210,3520,210C3466.7,210,3413,210,3360,210C3306.7,210,3253,210,3200,210C3146.7,210,3093,210,3040,210C2986.7,210,2933,210,2880,210C2826.7,210,2773,210,2720,210C2666.7,210,2613,210,2560,210C2506.7,210,2453,210,2400,210C2346.7,210,2293,210,2240,210C2186.7,210,2133,210,2080,210C2026.7,210,1973,210,1920,210C1866.7,210,1813,210,1760,210C1706.7,210,1653,210,1600,210C1546.7,210,1493,210,1440,210C1386.7,210,1333,210,1280,210C1226.7,210,1173,210,1120,210C1066.7,210,1013,210,960,210C906.7,210,853,210,800,210C746.7,210,693,210,640,210C586.7,210,533,210,480,210C426.7,210,373,210,320,210C266.7,210,213,210,160,210C106.7,210,53,210,27,210L0,210Z"></path><defs><linearGradient id="sw-gradient-1" x1="0" x2="0" y1="1" y2="0"><stop stop-color="rgba(255, 0, 0, 1)" offset="0%"></stop><stop stop-color="rgba(254.656, 255, 11, 1)" offset="100%"></stop></linearGradient></defs><path style="transform:translate(0, 50px); opacity:0.9" fill="url(#sw-gradient-1)" d="M0,42L26.7,49C53.3,56,107,70,160,84C213.3,98,267,112,320,119C373.3,126,427,126,480,115.5C533.3,105,587,84,640,63C693.3,42,747,21,800,17.5C853.3,14,907,28,960,49C1013.3,70,1067,98,1120,94.5C1173.3,91,1227,56,1280,52.5C1333.3,49,1387,77,1440,91C1493.3,105,1547,105,1600,98C1653.3,91,1707,77,1760,70C1813.3,63,1867,63,1920,80.5C1973.3,98,2027,133,2080,129.5C2133.3,126,2187,84,2240,80.5C2293.3,77,2347,112,2400,136.5C2453.3,161,2507,175,2560,150.5C2613.3,126,2667,63,2720,35C2773.3,7,2827,14,2880,38.5C2933.3,63,2987,105,3040,112C3093.3,119,3147,91,3200,66.5C3253.3,42,3307,21,3360,21C3413.3,21,3467,42,3520,73.5C3573.3,105,3627,147,3680,157.5C3733.3,168,3787,147,3813,136.5L3840,126L3840,210L3813.3,210C3786.7,210,3733,210,3680,210C3626.7,210,3573,210,3520,210C3466.7,210,3413,210,3360,210C3306.7,210,3253,210,3200,210C3146.7,210,3093,210,3040,210C2986.7,210,2933,210,2880,210C2826.7,210,2773,210,2720,210C2666.7,210,2613,210,2560,210C2506.7,210,2453,210,2400,210C2346.7,210,2293,210,2240,210C2186.7,210,2133,210,2080,210C2026.7,210,1973,210,1920,210C1866.7,210,1813,210,1760,210C1706.7,210,1653,210,1600,210C1546.7,210,1493,210,1440,210C1386.7,210,1333,210,1280,210C1226.7,210,1173,210,1120,210C1066.7,210,1013,210,960,210C906.7,210,853,210,800,210C746.7,210,693,210,640,210C586.7,210,533,210,480,210C426.7,210,373,210,320,210C266.7,210,213,210,160,210C106.7,210,53,210,27,210L0,210Z"></path></svg>